<svg width="1920" height="1080" viewBox="0 0 1920 1080" fill="none" xmlns="http://www.w3.org/2000/svg">
<g clip-path="url(#clip0)">
<path d="M908 941V1276.7" stroke="#2A2A2A" stroke-miterlimit="10" stroke-linecap="round"/>
<path d="M1394 847L1394 899" stroke="url(#paint0_linear)" stroke-miterlimit="10" stroke-linecap="round"/>
<path d="M1436 837L1436 861" stroke="url(#paint1_linear)" stroke-miterlimit="10" stroke-linecap="round"/>
<path d="M1022 1005L1022 1029" stroke="url(#paint2_linear)" stroke-miterlimit="10" stroke-linecap="round"/>
<path d="M991 926L991 1072" stroke="url(#paint3_linear)" stroke-miterlimit="10" stroke-linecap="round"/>
<path d="M416.117 1228.12L197 1098.59L421.315 972L640.5 1101.53L416.117 1228.12Z" stroke="#2A2A2A" stroke-opacity="0.7" stroke-width="1.5" stroke-miterlimit="10"/>
<path d="M531.078 1036.56L306.627 1163.21" stroke="#2A2A2A" stroke-opacity="0.7" stroke-width="1.5" stroke-miterlimit="10"/>
<path d="M494.49 1014.88L270.039 1141.53" stroke="#2A2A2A" stroke-opacity="0.7" stroke-width="1.5" stroke-miterlimit="10"/>
<path d="M457.834 993.269L233.383 1119.86" stroke="#2A2A2A" stroke-opacity="0.7" stroke-width="1.5" stroke-miterlimit="10"/>
<path d="M567.735 1058.24L343.283 1184.83" stroke="#2A2A2A" stroke-opacity="0.7" stroke-width="1.5" stroke-miterlimit="10"/>
<path d="M604.391 1079.85L379.939 1206.5" stroke="#2A2A2A" stroke-opacity="0.7" stroke-width="1.5" stroke-miterlimit="10"/>
<path d="M528.479 1164.65L309.225 1035.05" stroke="#2A2A2A" stroke-opacity="0.7" stroke-width="1.5" stroke-miterlimit="10"/>
<path d="M566.025 1143.52L346.771 1013.92" stroke="#2A2A2A" stroke-opacity="0.7" stroke-width="1.5" stroke-miterlimit="10"/>
<path d="M603.502 1122.39L384.248 992.723" stroke="#2A2A2A" stroke-opacity="0.7" stroke-width="1.5" stroke-miterlimit="10"/>
<path d="M491.002 1185.85L271.748 1056.19" stroke="#2A2A2A" stroke-opacity="0.7" stroke-width="1.5" stroke-miterlimit="10"/>
<path d="M453.525 1206.98L234.203 1077.39" stroke="#2A2A2A" stroke-opacity="0.7" stroke-width="1.5" stroke-miterlimit="10"/>
<path d="M1678.12 889.115L1459 759.587L1683.31 633L1902.5 762.528L1678.12 889.115Z" stroke="#2A2A2A" stroke-width="1.5" stroke-miterlimit="10"/>
<path d="M1793.08 697.559L1568.63 824.214" stroke="#2A2A2A" stroke-width="1.5" stroke-miterlimit="10"/>
<path d="M1756.49 675.879L1532.04 802.535" stroke="#2A2A2A" stroke-width="1.5" stroke-miterlimit="10"/>
<path d="M1719.83 654.269L1495.38 780.856" stroke="#2A2A2A" stroke-width="1.5" stroke-miterlimit="10"/>
<path d="M1829.73 719.238L1605.28 845.826" stroke="#2A2A2A" stroke-width="1.5" stroke-miterlimit="10"/>
<path d="M1866.39 740.849L1641.94 867.504" stroke="#2A2A2A" stroke-width="1.5" stroke-miterlimit="10"/>
<path d="M1790.48 825.65L1571.22 696.054" stroke="#2A2A2A" stroke-width="1.5" stroke-miterlimit="10"/>
<path d="M1828.03 804.519L1608.77 674.923" stroke="#2A2A2A" stroke-width="1.5" stroke-miterlimit="10"/>
<path d="M1865.5 783.387L1646.25 653.723" stroke="#2A2A2A" stroke-width="1.5" stroke-miterlimit="10"/>
<path d="M1753 846.851L1533.75 717.187" stroke="#2A2A2A" stroke-width="1.5" stroke-miterlimit="10"/>
<path d="M1715.53 867.983L1496.2 738.387" stroke="#2A2A2A" stroke-width="1.5" stroke-miterlimit="10"/>
<path opacity="0.3" d="M1433 1227.1L994.298 973.8L908.398 1023.4L1347.1 1276.7L1433 1227.1Z" fill="#2A2A2A"/>
<path opacity="0.4" d="M1435.7 1139.2L991.798 882.8L904.898 933L1348.8 1189.3L1435.7 1139.2Z" fill="#2A2A2A"/>
<path d="M1678 891C1679.1 891 1680 890.105 1680 889C1680 887.895 1679.1 887 1678 887C1676.9 887 1676 887.895 1676 889C1676 890.105 1676.9 891 1678 891Z" fill="#5C5C5C"/>
<path d="M1459 762C1460.1 762 1461 761.105 1461 760C1461 758.895 1460.1 758 1459 758C1457.9 758 1457 758.895 1457 760C1457 761.105 1457.9 762 1459 762Z" fill="#5C5C5C"/>
<path d="M1683 635C1684.1 635 1685 634.105 1685 633C1685 631.895 1684.1 631 1683 631C1681.9 631 1681 631.895 1681 633C1681 634.105 1681.9 635 1683 635Z" fill="#5C5C5C"/>
<path d="M421 974C422.105 974 423 973.105 423 972C423 970.895 422.105 970 421 970C419.895 970 419 970.895 419 972C419 973.105 419.895 974 421 974Z" fill="#5C5C5C"/>
<path d="M908.699 934.6C909.804 934.6 910.699 933.704 910.699 932.6C910.699 931.495 909.804 930.6 908.699 930.6C907.595 930.6 906.699 931.495 906.699 932.6C906.699 933.704 907.595 934.6 908.699 934.6Z" fill="#5C5C5C"/>
<path d="M993.1 884.6C994.204 884.6 995.1 883.704 995.1 882.6C995.1 881.495 994.204 880.6 993.1 880.6C991.995 880.6 991.1 881.495 991.1 882.6C991.1 883.704 991.995 884.6 993.1 884.6Z" fill="#5C5C5C"/>
<path d="M985.8 886L913.1 928.7" stroke="#303030" stroke-miterlimit="10"/>
<path d="M1761.7 586L1689 628.7" stroke="#303030" stroke-miterlimit="10"/>
<path d="M1341.8 1185.3L913.6 937.9" stroke="#303030" stroke-miterlimit="10"/>
<path d="M1428 1135.5L998.898 887.1" stroke="#303030" stroke-miterlimit="10"/>
<path opacity="0.4" d="M1385.3 1158.9L956.199 910.5" stroke="#303030" stroke-miterlimit="10"/>
<path opacity="0.4" d="M1407.3 1146.5L978.199 898.1" stroke="#303030" stroke-miterlimit="10"/>
<path opacity="0.4" d="M1364.1 1171.9L935 923.5" stroke="#303030" stroke-miterlimit="10"/>
<g opacity="0.3">
<path opacity="0.8" d="M966.201 878.9L941.201 864.4L900.301 888L925.301 902.5L966.201 878.9Z" fill="#4F4F4F"/>
<path opacity="0.8" d="M959.301 916.301L934.201 901.801L929.301 904.701L954.301 919.201L959.301 916.301Z" fill="#4F4F4F"/>
<path opacity="0.8" d="M1022.2 913L997.201 898.5L957.801 921.2L982.901 935.7L1022.2 913Z" fill="#4F4F4F"/>
<path opacity="0.8" d="M1066.9 919.701L1041.8 905.301L986 937.501L1011.1 952.001L1066.9 919.701Z" fill="#4F4F4F"/>
<path opacity="0.8" d="M1109.1 928.4L1084 913.9L1014.6 954L1039.6 968.5L1109.1 928.4Z" fill="#4F4F4F"/>
<path opacity="0.8" d="M1129.4 949.6L1104.4 935.2L1043.2 970.5L1068.2 985L1129.4 949.6Z" fill="#4F4F4F"/>
<path opacity="0.8" d="M1166.4 961.5L1141.4 947L1072 987.1L1097 1001.6L1166.4 961.5Z" fill="#4F4F4F"/>
<path opacity="0.8" d="M1225.4 1025.9L1200.4 1011.4L1157.2 1036.4L1182.2 1050.8L1225.4 1025.9Z" fill="#4F4F4F"/>
<path opacity="0.8" d="M1275.1 1030.4L1250 1016L1186 1053L1211 1067.4L1275.1 1030.4Z" fill="#4F4F4F"/>
<path opacity="0.8" d="M1268 1067.1L1242.9 1052.6L1214.2 1069.3L1239.2 1083.7L1268 1067.1Z" fill="#4F4F4F"/>
</g>
<path d="M941.1 864.1L966.2 878.5" stroke="#4C4C4C" stroke-miterlimit="10"/>
<path d="M934.199 901.5L959.299 916" stroke="#4C4C4C" stroke-miterlimit="10"/>
<path d="M997.1 898.199L1022.2 912.699" stroke="#4C4C4C" stroke-miterlimit="10"/>
<path d="M1041.8 905L1066.9 919.4" stroke="#4C4C4C" stroke-miterlimit="10"/>
<path d="M1084 913.6L1109 928.1" stroke="#4C4C4C" stroke-miterlimit="10"/>
<path d="M1104.3 934.899L1129.4 949.299" stroke="#4C4C4C" stroke-miterlimit="10"/>
<path d="M1141.4 946.699L1166.4 961.199" stroke="#4C4C4C" stroke-miterlimit="10"/>
<path d="M1200 1011L1225.1 1025.5" stroke="#4C4C4C" stroke-miterlimit="10"/>
<path d="M1250 1016L1275 1030.4" stroke="#4C4C4C" stroke-miterlimit="10"/>
<path d="M1242.9 1052.3L1268 1066.8" stroke="#4C4C4C" stroke-miterlimit="10"/>
<path d="M1232.6 1072.7L1257.7 1087.1" stroke="#4C4C4C" stroke-miterlimit="10"/>
<path opacity="0.2" d="M920.6 985.078L965.2 1010.88C965.6 1011.08 965.8 1011.58 965.8 1011.98V1025.48C965.8 1025.88 965.5 1026.08 965.2 1025.88L920.6 1000.08C920.2 999.878 920 999.378 920 998.978V985.478C920 985.078 920.3 984.878 920.6 985.078Z" stroke="#808285" stroke-miterlimit="10"/>
<path opacity="0.2" d="M969.799 1013.28L981.299 1020.08C981.699 1020.28 981.899 1020.78 981.899 1021.18V1034.68C981.899 1035.08 981.599 1035.28 981.299 1035.08L969.799 1028.28C969.399 1028.08 969.199 1027.58 969.199 1027.18V1013.68C969.199 1013.18 969.499 1012.98 969.799 1013.28Z" stroke="#808285" stroke-miterlimit="10"/>
<path opacity="0.2" d="M985.702 1022.28L997.202 1029.08C997.602 1029.28 997.802 1029.78 997.802 1030.18V1043.68C997.802 1044.08 997.502 1044.28 997.202 1044.08L985.702 1037.28C985.302 1037.08 985.102 1036.58 985.102 1036.18V1022.68C985.102 1022.18 985.402 1022.08 985.702 1022.28Z" stroke="#808285" stroke-miterlimit="10"/>
<path d="M1628.2 688.2V672.5" stroke="#4F4F4F" stroke-miterlimit="10" stroke-linecap="round" stroke-linejoin="round"/>
<path d="M1624 690.6V658.9" stroke="#4F4F4F" stroke-miterlimit="10" stroke-linecap="round" stroke-linejoin="round"/>
<path d="M1578.2 717.1V661.9" stroke="#4F4F4F" stroke-miterlimit="10" stroke-linecap="round" stroke-linejoin="round"/>
<path d="M1574 719.5V691.4" stroke="#4F4F4F" stroke-miterlimit="10" stroke-linecap="round" stroke-linejoin="round"/>
<path d="M1615.6 695.5V656.3" stroke="#4F4F4F" stroke-miterlimit="10" stroke-linecap="round" stroke-linejoin="round"/>
<path d="M1611.4 697.9V678.9" stroke="#4F4F4F" stroke-miterlimit="10" stroke-linecap="round" stroke-linejoin="round"/>
<path d="M1602.9 702.9L1602.8 634" stroke="#4F4F4F" stroke-miterlimit="10" stroke-linecap="round" stroke-linejoin="round"/>
<path d="M1598.6 705.3V651.2" stroke="#4F4F4F" stroke-miterlimit="10" stroke-linecap="round" stroke-linejoin="round"/>
<path d="M1590.2 710.2V692.7" stroke="#4F4F4F" stroke-miterlimit="10" stroke-linecap="round" stroke-linejoin="round"/>
<path d="M1586 712.6V673.7" stroke="#4F4F4F" stroke-miterlimit="10" stroke-linecap="round" stroke-linejoin="round"/>
<path d="M1564.2 725.2V695.7" stroke="#4F4F4F" stroke-miterlimit="10" stroke-linecap="round" stroke-linejoin="round"/>
<path d="M1560 727.6V711.2" stroke="#4F4F4F" stroke-miterlimit="10" stroke-linecap="round" stroke-linejoin="round"/>
<path d="M1514.2 754V733" stroke="#4F4F4F" stroke-miterlimit="10" stroke-linecap="round" stroke-linejoin="round"/>
<path d="M1510 756.4V741.9" stroke="#4F4F4F" stroke-miterlimit="10" stroke-linecap="round" stroke-linejoin="round"/>
<path d="M1551.6 732.4V714.5" stroke="#4F4F4F" stroke-miterlimit="10" stroke-linecap="round" stroke-linejoin="round"/>
<path d="M1547.4 734.9V731" stroke="#4F4F4F" stroke-miterlimit="10" stroke-linecap="round" stroke-linejoin="round"/>
<path d="M1538.9 739.8L1538.8 704.2" stroke="#4F4F4F" stroke-miterlimit="10" stroke-linecap="round" stroke-linejoin="round"/>
<path d="M1534.6 742.2V714.3" stroke="#4F4F4F" stroke-miterlimit="10" stroke-linecap="round" stroke-linejoin="round"/>
<path d="M1526.2 747.101V738.101" stroke="#4F4F4F" stroke-miterlimit="10" stroke-linecap="round" stroke-linejoin="round"/>
<path d="M1522 749.5V735.7" stroke="#4F4F4F" stroke-miterlimit="10" stroke-linecap="round" stroke-linejoin="round"/>
<path d="M317 1038.9C329.343 1046.21 334.185 999.576 348.617 1008.03C363.049 1016.48 364.093 1035.67 380.519 1045.36C397.609 1055.42 397.989 1007.46 418.022 1019.24C438.056 1031.01 436.347 1100.82 458.089 1113.64C471.002 1121.24 471.572 1095.6 485.624 1103.96C499.676 1112.32 505.372 1150.59 518 1158L317 1038.9Z" fill="url(#paint4_linear)"/>
<ellipse cx="1629.1" cy="759.725" rx="134.464" ry="131.176" transform="rotate(27.777 1629.1 759.725)" fill="url(#paint5_radial)" fill-opacity="0.5"/>
<path d="M475 1037.8L516.1 1014" stroke="#4F4F4F" stroke-miterlimit="10" stroke-linecap="round" stroke-linejoin="round"/>
<path d="M479.199 1040.2L502.099 1027" stroke="#4F4F4F" stroke-miterlimit="10" stroke-linecap="round" stroke-linejoin="round"/>
<path d="M525 1066.6L554.4 1049.7" stroke="#4F4F4F" stroke-miterlimit="10" stroke-linecap="round" stroke-linejoin="round"/>
<path d="M529.199 1069L549.499 1057.3" stroke="#4F4F4F" stroke-miterlimit="10" stroke-linecap="round" stroke-linejoin="round"/>
<path d="M487.6 1045L512.7 1030.6" stroke="#4F4F4F" stroke-miterlimit="10" stroke-linecap="round" stroke-linejoin="round"/>
<path d="M491.801 1047.5L497.301 1044.3" stroke="#4F4F4F" stroke-miterlimit="10" stroke-linecap="round" stroke-linejoin="round"/>
<path d="M500.4 1052.4L550.1 1023.7" stroke="#4F4F4F" stroke-miterlimit="10" stroke-linecap="round" stroke-linejoin="round"/>
<path d="M504.6 1054.8L543.6 1032.3" stroke="#4F4F4F" stroke-miterlimit="10" stroke-linecap="round" stroke-linejoin="round"/>
<path d="M513 1059.7L525.6 1052.4" stroke="#4F4F4F" stroke-miterlimit="10" stroke-linecap="round" stroke-linejoin="round"/>
<path d="M517.199 1062.1L536.599 1051" stroke="#4F4F4F" stroke-miterlimit="10" stroke-linecap="round" stroke-linejoin="round"/>
<path d="M539 1074.7L560.3 1062.4" stroke="#4F4F4F" stroke-miterlimit="10" stroke-linecap="round" stroke-linejoin="round"/>
<path d="M543.199 1077.1L555.099 1070.3" stroke="#4F4F4F" stroke-miterlimit="10" stroke-linecap="round" stroke-linejoin="round"/>
<path d="M551.6 1082L564.6 1074.5" stroke="#4F4F4F" stroke-miterlimit="10" stroke-linecap="round" stroke-linejoin="round"/>
<path d="M564.4 1089.4L590.1 1074.5" stroke="#4F4F4F" stroke-miterlimit="10" stroke-linecap="round" stroke-linejoin="round"/>
<path d="M568.6 1091.8L588.8 1080.1" stroke="#4F4F4F" stroke-miterlimit="10" stroke-linecap="round" stroke-linejoin="round"/>
<path opacity="0.2" d="M1476.5 1021L1440 999.9L1523.4 951.7L1559.9 972.8L1476.5 1021Z" fill="#2A2A2A"/>
<path opacity="0.5" d="M1476.5 1000.1L1440 979L1523.4 930.9L1559.9 952L1476.5 1000.1Z" fill="#2A2A2A"/>
<path d="M1476.5 978.3L1440 957.2L1523.4 909L1559.9 930.1L1476.5 978.3Z" stroke="#2A2A2A" stroke-miterlimit="10"/>
<path d="M1541.4 932.5L1526 922.9" stroke="#4F4F4F" stroke-width="1.5" stroke-miterlimit="10"/>
<path d="M1536.3 935.2L1527.7 929.9" stroke="#4F4F4F" stroke-width="1.5" stroke-miterlimit="10"/>
<path d="M1480.7 965L1469.8 958.2" stroke="#4F4F4F" stroke-width="1.5" stroke-miterlimit="10"/>
<path d="M1475.6 967.7L1468 963" stroke="#4F4F4F" stroke-width="1.5" stroke-miterlimit="10"/>
<path d="M1526.1 940.7L1516.7 934.9" stroke="#4F4F4F" stroke-width="1.5" stroke-miterlimit="10"/>
<path d="M1521 943.401L1519 942.101" stroke="#4F4F4F" stroke-width="1.5" stroke-miterlimit="10"/>
<path d="M1510.6 949L1492 937.4" stroke="#4F4F4F" stroke-width="1.5" stroke-miterlimit="10"/>
<path d="M1505.5 951.701L1490.9 942.601" stroke="#4F4F4F" stroke-width="1.5" stroke-miterlimit="10"/>
<path d="M1495.3 957.2L1490.6 954.2" stroke="#4F4F4F" stroke-width="1.5" stroke-miterlimit="10"/>
<path d="M1490.2 959.9L1483 955.4" stroke="#4F4F4F" stroke-width="1.5" stroke-miterlimit="10"/>
<g opacity="0.5">
<g opacity="0.66">
<g opacity="0.3">
<path opacity="0.8" d="M1653.1 515.6L1677.6 529.8V621.3L1653 607.1L1653.1 515.6Z" fill="#939598"/>
<path opacity="0.8" d="M1625 488.2L1649.6 502.3V605.1L1625 590.9V488.2Z" fill="#808285"/>
<path opacity="0.8" d="M1597.2 504.4L1621.8 518.6V589L1597.2 574.8V504.4Z" fill="#6D6E71"/>
<path opacity="0.8" d="M1568.9 453.9L1593.5 468.1V572.7L1568.9 558.5V453.9Z" fill="#58595B"/>
<path opacity="0.8" d="M1541.2 495.6L1565.8 509.8V556.7L1541.2 542.6V495.6Z" fill="#494949"/>
<path opacity="0.8" d="M1513 515.3L1537.6 529.5V540.4L1513 526.2V515.3Z" fill="#292929"/>
<path opacity="0.8" d="M1484.7 478.3L1509.3 492.5V524.1L1484.7 509.9V478.3Z" fill="#292929"/>
<path opacity="0.8" d="M1456.7 488.1L1481.2 502.3V507.9L1456.7 493.7V488.1Z" fill="#292929"/>
<path opacity="0.8" d="M1429 417L1453.6 431.2V491.9L1429 477.8V417Z" fill="#1C1C1C"/>
</g>
<g opacity="0.3">
<path opacity="0.3" d="M1677.6 529.8L1653.1 515.7" stroke="#D1D3D4" stroke-miterlimit="10"/>
<path opacity="0.3" d="M1649.6 502.4L1625 488.2" stroke="#BCBEC0" stroke-miterlimit="10"/>
<path opacity="0.3" d="M1621.8 518.6L1597.2 504.4" stroke="#A7A9AC" stroke-miterlimit="10"/>
<path opacity="0.3" d="M1593.5 468.1L1568.9 454" stroke="#939598" stroke-miterlimit="10"/>
<path opacity="0.3" d="M1565.8 509.8L1541.2 495.6" stroke="#808285" stroke-miterlimit="10"/>
<path opacity="0.3" d="M1537.6 529.5L1513 515.3" stroke="#515151" stroke-miterlimit="10"/>
<path opacity="0.3" d="M1509.3 492.5L1484.7 478.3" stroke="#515151" stroke-miterlimit="10"/>
<path opacity="0.3" d="M1481.2 502.3L1456.7 488.1" stroke="#515151" stroke-miterlimit="10"/>
<path opacity="0.3" d="M1453.6 431.2L1429 417" stroke="#3D3D3D" stroke-miterlimit="10"/>
</g>
</g>
<path opacity="0.6" d="M1677.4 628.5L1428 485.9" stroke="url(#paint6_linear)" stroke-miterlimit="10" stroke-linecap="round" stroke-linejoin="round"/>
</g>
<path d="M1590 691L1666.6 735.401V796.201L1590 751.8V691Z" fill="url(#paint7_radial)"/>
<path d="M1590.5 751.512V691.868L1666.1 735.689V795.333L1590.5 751.512Z" stroke="url(#paint8_linear)"/>
<path d="M1460 760L1677 888L1714 868.5L1666.1 795.702L1589.5 751.301L1495.5 738.15L1460 760Z" fill="url(#paint9_radial)" fill-opacity="0.3"/>
<ellipse cx="1461.55" cy="833.682" rx="242.431" ry="31.6304" transform="rotate(-30.7339 1461.55 833.682)" fill="url(#paint10_radial)" fill-opacity="0.4"/>
<path d="M991 1000C991.552 1000 992 999.552 992 999C992 998.448 991.552 998 991 998C990.448 998 990 998.448 990 999C990 999.552 990.448 1000 991 1000Z" fill="#F14F1F"/>
<path d="M1022 1018C1022.55 1018 1023 1017.55 1023 1017C1023 1016.45 1022.55 1016 1022 1016C1021.45 1016 1021 1016.45 1021 1017C1021 1017.55 1021.45 1018 1022 1018Z" fill="#F14F1F"/>
<g opacity="0.1">
<path d="M1619 754.661L1629.19 760.556V758.458L1619 752.562V754.661ZM1631.26 761.722L1641.45 767.618V765.519L1631.26 759.624V761.722ZM1643.55 768.817L1653.74 774.713V772.614L1643.55 766.719V768.817ZM1655.81 775.879L1666 781.775V779.676L1655.81 773.814V775.879ZM1619 751.363L1629.19 757.259V755.16L1619 749.264V751.363ZM1631.26 758.458L1641.45 764.354V762.255L1631.26 756.359V758.458ZM1643.55 765.519L1653.74 771.415V769.317L1643.55 763.421V765.519ZM1655.81 770.516V772.614L1666 778.51V776.412L1655.81 770.516ZM1619 748.099L1629.19 753.994V751.896L1619 746V748.099ZM1631.26 755.193L1641.45 761.089V758.991L1631.26 753.095V755.193ZM1643.55 762.255L1653.74 768.151V766.052L1643.55 760.157V762.255ZM1631.26 751.896L1641.45 757.792V755.693L1631.26 749.831V751.896ZM1643.55 758.991L1653.74 764.887V762.788L1643.55 756.892V758.991ZM1643.55 755.726L1653.74 761.622V759.524L1643.55 753.628V755.726ZM1643.55 752.429L1653.74 758.325V756.226L1643.55 750.33V752.429Z" fill="#FFDB2E"/>
</g>
<path opacity="0.4" d="M1504.92 851.628C1492.87 872.615 1466.72 880.204 1446.63 868.493C1426.46 856.875 1420.01 830.359 1432.06 809.372C1444.11 788.385 1470.26 780.796 1490.35 792.507C1510.43 804.219 1517.06 830.641 1504.92 851.628Z" fill="url(#paint11_radial)"/>
<path d="M1468.5 833C1469.88 833 1471 831.881 1471 830.5C1471 829.119 1469.88 828 1468.5 828C1467.12 828 1466 829.119 1466 830.5C1466 831.881 1467.12 833 1468.5 833Z" fill="url(#paint12_radial)"/>
<path d="M479 1224.16L922.037 968.429C926.123 966.064 932.834 966.064 936.921 968.429L1027.43 1020.67C1031.52 1023.03 1038.23 1023.03 1042.31 1020.67L1221.35 917.352C1225.44 914.988 1232.15 914.988 1236.24 917.352L1269.06 936.313C1273.14 938.677 1279.86 938.677 1283.94 936.313L1649 727" stroke="url(#paint13_linear)" stroke-width="1.5" stroke-miterlimit="10"/>
</g>
<defs>
<linearGradient id="paint0_linear" x1="1394.5" y1="847" x2="1394.5" y2="899" gradientUnits="userSpaceOnUse">
<stop stop-color="#2A2A2A" stop-opacity="0"/>
<stop offset="0.4931" stop-color="#2A2A2A"/>
<stop offset="1" stop-color="#2A2A2A" stop-opacity="0"/>
</linearGradient>
<linearGradient id="paint1_linear" x1="1436.5" y1="837" x2="1436.5" y2="861" gradientUnits="userSpaceOnUse">
<stop stop-color="#2A2A2A" stop-opacity="0"/>
<stop offset="0.4931" stop-color="#2A2A2A"/>
<stop offset="1" stop-color="#2A2A2A" stop-opacity="0"/>
</linearGradient>
<linearGradient id="paint2_linear" x1="1022.5" y1="1005" x2="1022.5" y2="1029" gradientUnits="userSpaceOnUse">
<stop stop-color="#2A2A2A" stop-opacity="0"/>
<stop offset="0.4931" stop-color="#2A2A2A"/>
<stop offset="1" stop-color="#2A2A2A" stop-opacity="0"/>
</linearGradient>
<linearGradient id="paint3_linear" x1="991.5" y1="926" x2="991.5" y2="1072" gradientUnits="userSpaceOnUse">
<stop stop-color="#2A2A2A" stop-opacity="0"/>
<stop offset="0.4931" stop-color="#2A2A2A"/>
<stop offset="1" stop-color="#2A2A2A" stop-opacity="0"/>
</linearGradient>
<linearGradient id="paint4_linear" x1="471.108" y1="1020.41" x2="410.872" y2="1107.91" gradientUnits="userSpaceOnUse">
<stop offset="0.2314" stop-color="#4F4F4F"/>
<stop offset="0.4392" stop-color="#444444" stop-opacity="0.7296"/>
<stop offset="1" stop-color="#2A2A2A" stop-opacity="0"/>
</linearGradient>
<radialGradient id="paint5_radial" cx="0" cy="0" r="1" gradientUnits="userSpaceOnUse" gradientTransform="translate(1629.1 759.725) rotate(90) scale(131.176 134.464)">
<stop stop-color="#FF380B"/>
<stop offset="0.239583" stop-color="#F11604" stop-opacity="0.393403"/>
<stop offset="0.489583" stop-color="#EC0C02" stop-opacity="0.208054"/>
<stop offset="0.776042" stop-color="#E90401" stop-opacity="0.078125"/>
<stop offset="1" stop-color="#E80000" stop-opacity="0"/>
</radialGradient>
<linearGradient id="paint6_linear" x1="1427.51" y1="557.166" x2="1677.87" y2="557.166" gradientUnits="userSpaceOnUse">
<stop stop-color="#2A2A2A" stop-opacity="0"/>
<stop offset="0.0646734" stop-color="#2C2C2C" stop-opacity="0.0646734"/>
<stop offset="0.5899" stop-color="#3C3B3C" stop-opacity="0.5899"/>
<stop offset="1" stop-color="#414042"/>
</linearGradient>
<radialGradient id="paint7_radial" cx="0" cy="0" r="1" gradientUnits="userSpaceOnUse" gradientTransform="translate(1688 756.5) rotate(-178.623) scale(104.03)">
<stop stop-color="#FFA422"/>
<stop offset="1" stop-color="#DB401D"/>
</radialGradient>
<linearGradient id="paint8_linear" x1="1634.5" y1="716" x2="1613.5" y2="766.5" gradientUnits="userSpaceOnUse">
<stop stop-color="#FFDE2E"/>
<stop offset="1" stop-color="#FF6B00" stop-opacity="0"/>
</linearGradient>
<radialGradient id="paint9_radial" cx="0" cy="0" r="1" gradientUnits="userSpaceOnUse" gradientTransform="translate(1616.5 750.5) rotate(150.101) scale(138.423)">
<stop stop-color="#FF5C00"/>
<stop offset="0.341294" stop-color="#FF5C00" stop-opacity="0.8"/>
<stop offset="1" stop-color="#EA2B00" stop-opacity="0"/>
</radialGradient>
<radialGradient id="paint10_radial" cx="0" cy="0" r="1" gradientUnits="userSpaceOnUse" gradientTransform="translate(1461.55 833.682) rotate(90) scale(31.6304 242.431)">
<stop stop-color="#FF380B"/>
<stop offset="0.078125" stop-color="#F62207" stop-opacity="0.61758"/>
<stop offset="0.239583" stop-color="#F11604" stop-opacity="0.393403"/>
<stop offset="0.489583" stop-color="#EC0C02" stop-opacity="0.208054"/>
<stop offset="0.776042" stop-color="#E90401" stop-opacity="0.078125"/>
<stop offset="1" stop-color="#E80000" stop-opacity="0"/>
</radialGradient>
<radialGradient id="paint11_radial" cx="0" cy="0" r="1" gradientUnits="userSpaceOnUse" gradientTransform="translate(1468.07 829.885) rotate(30.0747) scale(40.8134 42.4841)">
<stop offset="0.1125" stop-color="#F03F28" stop-opacity="0.8"/>
<stop offset="0.3028" stop-color="#E43D22" stop-opacity="0.408"/>
<stop offset="0.5766" stop-color="#DC3C1D" stop-opacity="0.2006"/>
<stop offset="0.9978" stop-color="#920011" stop-opacity="0"/>
</radialGradient>
<radialGradient id="paint12_radial" cx="0" cy="0" r="1" gradientUnits="userSpaceOnUse" gradientTransform="translate(1469.5 829.138) scale(4.45897)">
<stop stop-color="#FFA422"/>
<stop offset="0.1539" stop-color="#FD9923"/>
<stop offset="0.4244" stop-color="#F77B25"/>
<stop offset="0.6781" stop-color="#F05A28"/>
<stop offset="1" stop-color="#F03F28"/>
</radialGradient>
<linearGradient id="paint13_linear" x1="1639" y1="732.5" x2="541.001" y2="1189" gradientUnits="userSpaceOnUse">
<stop stop-color="#FBCA0A" stop-opacity="0"/>
<stop offset="0.0300781" stop-color="#FBCA0A"/>
<stop offset="0.498411" stop-color="#F05A28"/>
<stop offset="1" stop-color="#30000E" stop-opacity="0"/>
</linearGradient>
<clipPath id="clip0">
<rect width="1920" height="1080" fill="white"/>
</clipPath>
</defs>
</svg>
